<svg xmlns:rdf="http://www.w3.org/1999/02/22-rdf-syntax-ns#" xmlns="http://www.w3.org/2000/svg" height="93.403mm" width="204.72mm" version="1.1" xmlns:cc="http://creativecommons.org/ns#" xmlns:dc="http://purl.org/dc/elements/1.1/" viewBox="0 0 725.37945 330.95621">
 <g transform="translate(-8.5559 -122.4)">
  <g stroke="#0ec715" fill="none" transform="translate(48.469 -56.641)">
   <path d="m-0.404 338.03 30.708-43.639 46.871-6.465 14.546-25.86 30.708-4.849-37.173-33.941 71.115-9.697 37.173-25.86 63.034 9.697h67.882l17.779-12.93 56.568 25.86 17.778-21.011 98.591-9.697-8.081 14.546 32.325 42.022 50.104 9.697 37.174 56.569 45.255 16.162 12.93 46.871-24.244 14.546-1.616 29.092-29.092 29.092-35.558-12.93-19.395 30.708-59.802 9.698-27.476 30.708-35.558-14.546-19.395 27.476-61.418-33.941-72.73 29.092-58.185-27.476-37.173-4.849-85.661 22.627-12.93-35.558-79.196-9.697 12.93-32.325-58.185-25.86-19.395-54.952 38.792 1.62z"/>
   <path d="m372.14 474.6-46.871-48.487-85.661 51.72"/>
   <path d="m297.79 503.69 26.667-77.58-126.88-37.982 5.657 83.237"/>
   <path d="m116.77 493.99 80.01-106.67"/>
   <path d="m103.84 459.24 6.465-42.022 86.469-29.901"/>
   <path d="m110.31 417.22v-33.133l-71.115 32.325"/>
   <path d="m196.78 387.32 15.354-46.063 112.33 84.853-41.214-92.934-71.115 8.081"/>
   <path d="m283.25 333.08-11.314-67.781-60.609 34.75 0.909 41.214"/>
   <path d="m211.02 300.14-61.922 11.213 46.063 75.963"/>
   <path d="m149 311.36-22.526-2.424-45.255 9.697 29.093 67.074 38.688-74.347z"/>
   <path d="m91.823 262.36 34.951 46.568"/>
   <path d="m122.84 257.32 88.388 42.83"/>
   <path d="m208.9 300.04-52.528-85.661 115.56 50.912"/>
   <path d="m156.37 215.19 99.4-16.97"/>
   <path d="m271.12 263.68 54.145-65.458 11.158 111.13 29.17-62.031 33.546-36.555"/>
   <path d="m283.25 332.37 42.83-134.15"/>
   <path d="m336.76 309.59-12.3 115.71"/>
   <path d="m515.18 180.44-49.295 80.004-49.296-69.499"/>
   <path d="m371.33 475.41 25.86-12.122 54.952 19.395 63.842-18.586"/>
   <path d="m454.57 483.49 15.35-72.73-86.47 29.09 14.55 23.43"/>
   <path d="m324.46 425.3 58.993 14.546"/>
   <path d="m336.66 306.83 48.41 133.83"/>
   <path d="m366.48 248.32 50.709 32.308 48.69-20.994"/>
   <path d="m384.26 439.85 11.313-35.557 21.853-123.8"/>
   <path d="m396.38 404.29 71.923 5.657"/>
   <path d="m465.07 260.45-7.677 70.307-61.014 75.155"/>
   <path d="m592.76 424.5-29.093-45.255-48.487 84.853-46.871-54.145-11.313-78.388 81.62-38.79v-57.376"/>
   <path d="m470.73 410.76 67.88-117.18"/>
   <path d="m564.47 378.43-25.86-85.661"/>
   <path d="m627.51 302.47-50.104 37.981-38.79-47.679"/>
   <path d="m594.37 422.88 63.842-13.738"/>
   <path d="m658.22 380.86-93.75-1.62"/>
   <path d="m576.6 339.64 80.812 40.406"/>
   <path d="m0.404 338.03 33.941 36.366-52.528 16.97"/>
   <path d="m77.984 288.73 2.424 29.9-46.063 54.145 71.923 10.505"/>
  </g>
 </g>
</svg>
