<svg xmlns:rdf="http://www.w3.org/1999/02/22-rdf-syntax-ns#" xmlns="http://www.w3.org/2000/svg" height="94.752mm" width="203.32mm" version="1.1" xmlns:cc="http://creativecommons.org/ns#" xmlns:dc="http://purl.org/dc/elements/1.1/" viewBox="0 0 720.43425 335.73545">
 <g transform="translate(-25.296 -555.16)">
  <g stroke="#d57515" fill="none" transform="translate(91.47 37.823)">
   <path d="m264.14 517.93-53.336 25.861-61.417 11.313-32.325-6.465-35.558 48.488h-30.708l-30.708 12.93-40.406-6.465-37.174 42.021 27.477 35.559-1.617 24.242-29.092 21.012-4.849 25.859h27.476l48.487 40.406 51.72-21.01 59.801 38.789h21.011l48.487 16.162 35.557-12.93 40.406 38.789 75.963-29.092 38.79 9.697 21.011-29.092 24.244 4.848 19.395 17.779 67.883-38.789 17.778-40.406 43.639 4.848 24.244-25.859 42.021-12.93 11.314-38.789-30.709-12.932-6.465-38.789-58.185-32.324-27.477-29.094-45.255 4.85-58.185-21.012-113.14 16.162-50.101-43.637z"/>
   <path d="m264.14 520.36 6.465 77.58 42.831-35.559 19.395 37.174 58.186 19.395 34.749-74.348"/>
   <path d="m213.23 544.6 43.639 84.045 13.738-32.324"/>
   <path d="m147.77 557.53 4.041 42.021 61.417-51.721 5.657 71.115-84.853 9.697 16.971-29.092"/>
   <path d="m219.69 618.14 36.366 10.506"/>
   <path d="m270.61 596.32 65.458 55.76-77.579 51.656-2.424-73.475"/>
   <path d="m332.83 599.55 3.232 53.336 78.389-16.162-23.436-17.779"/>
   <path d="m426.57 547.02 14.547 93.742-27.477-3.232"/>
   <path d="m485.57 568.84 25.86 47.68 17.778-53.336"/>
   <path d="m558.16 589.18 16.301 56.43-63.842-29.9"/>
   <path d="m217.03 620.33-36.129 50.34 76.2 33.402"/>
   <path d="m439.27 642.01 45.714-74.857"/>
   <path d="m574.7 646.58 41.144-22.857"/>
   <path d="m344.14 824.21-7.273-34.75-80.812-3.232-29.093 28.285"/>
   <path d="m142.12 757.94 64.65-27.477"/>
   <path d="m207.57 733.7-16.16 91.32"/>
   <path d="m178.48 672.28-36.365 85.662"/>
   <path d="m126.76 775.72-36.365-54.14-29.093 50.1"/>
   <path d="m7.966 792.69-4.849-51.72 87.277-20.2"/>
   <path d="m81.505 598.74 50.912 29.094"/>
   <path d="m204.34 730.47-24.24-58.99"/>
   <path d="m62.11 772.49 64.65 3.232-2.424 33.133"/>
   <path d="m142.92 809.66 64.65-79.195"/>
   <path d="m127.57 775.72 15.354-17.777"/>
   <path d="m179.29 669.86-89.701 51.721 43.638-94.551"/>
   <path d="m51.605 597.93-2.424 74.348 83.236-42.021"/>
   <path d="m49.181 672.28 38.79 48.488"/>
   <path d="m49.181 676.32-45.255 63.84"/>
   <path d="m-29.207 680.36 75.963-5.656-26.668-64.65"/>
   <path d="m1.501 740.16-32.325-32.324-7.273 44.445"/>
   <path d="m-57.492 728.04 19.395 23.436"/>
   <path d="m257.68 704.61-50.11 29.09"/>
   <path d="m256.06 784.61 1.616-80.004"/>
   <path d="m259.29 704.61 77.58 87.277"/>
   <path d="m381.32 830.67-22.627-59.801-20.203 18.586"/>
   <path d="m258.48 703.8 120.41 5.656-19.396 61.418"/>
   <path d="m376.47 707.84-39.6-54.95"/>
   <path d="m378.9 711.07 22.627 92.934"/>
   <path d="m425.77 808.05 86.469-21.82"/>
   <path d="m530.82 746.63-58.99-65.46-45.26 126.07"/>
   <path d="m470.21 681.98-92.126 28.285"/>
   <path d="m411.22 638.34 60.608 43.639"/>
   <path d="m439.5 639.15 67.074 7.273-33.941 35.557"/>
   <path d="m511.43 617.33-3.232 29.092h64.649"/>
   <path d="m531.63 749.05-25.05-101.82"/>
   <path d="m534.05 745.01 35.558-53.338 27.476 33.135"/>
   <path d="m650.42 677.94-80.005 12.93 4.041-44.447"/>
   <path d="m621.33 659.35-50.912 32.324"/>
  </g>
 </g>
</svg>
